# xmcd
#
# Track frame offsets:
#	150
#	11479
#	28323
#	41674
#	53262
#	70157
#	84170
#	95588
#	106829
#	122622
#	138498
#	153260
#	169757
#	185904
#	208533
#	223796
#	239284
#	256145
#	279510
#	299117
#
# Disc length: 4204 seconds
#
# Revision: 1
# Processed by: cddbd v1.5.2PL0 Copyright (c) Steve Scherf et al.
# Submitted via: audiograbber 1.83.01
#
DISCID=1f106a14
DTITLE=The Staple Singers - The Very Best Of
DYEAR=2007
DGENRE=Gospel
TTITLE0=Long Walk To D.C.
TTITLE1=The Ghetto
TTITLE2=(Sittin' On) The Dock Of The Bay
TTITLE3=When Will We Be Paid
TTITLE4=Brand New Day
TTITLE5=Heavy Makes You Happy (Sha-Na-Boom-Boom)
TTITLE6=Love Is Plentiful
TTITLE7=Who Took The Merry Out Of Christmas
TTITLE8=You've Got To Earn It
TTITLE9=Respect Yourself
TTITLE10=I'll Take You There
TTITLE11=This World
TTITLE12=Oh La De Da
TTITLE13=Be What You Are
TTITLE14=If You're Ready (Come Go With Me)
TTITLE15=Touch A Hand, Make A Friend
TTITLE16=City In The Sky
TTITLE17=My Main Man/There Is A God
TTITLE18=Back Road Into Town
TTITLE19=I Got To Be Myself
EXTD=
EXTT0=
EXTT1=
EXTT2=
EXTT3=
EXTT4=
EXTT5=
EXTT6=
EXTT7=
EXTT8=
EXTT9=
EXTT10=
EXTT11=
EXTT12=
EXTT13=
EXTT14=
EXTT15=
EXTT16=
EXTT17=
EXTT18=
EXTT19=
PLAYORDER=
